<?xml version="1.0" encoding="UTF-8"?>
<svg version="1.1" xmlns="http://www.w3.org/2000/svg" width="1920" height="1080">
<path d="M0 0 C20.69913428 19.09896695 39.21510772 43.18219902 49.66748047 69.53857422 C49.66748047 70.19857422 49.66748047 70.85857422 49.66748047 71.53857422 C50.23438252 71.60940594 50.80128458 71.68023766 51.38536549 71.75321579 C65.68936474 73.55181165 79.93828018 75.60081969 94.17806053 77.84946442 C98.73893997 78.56816223 103.30146214 79.27616807 107.86388874 79.98496628 C116.29892435 81.29544464 124.73327386 82.60994784 133.16479492 83.94287109 C139.08983352 84.87912773 145.01686704 85.80168519 150.94542885 86.71535492 C153.18312887 87.06278665 155.42006338 87.41518984 157.65614891 87.7728653 C160.77940165 88.27186339 163.90492107 88.75326934 167.03149414 89.23095703 C167.93404434 89.37945099 168.83659454 89.52794495 169.76649475 89.68093872 C180.60373586 91.29283117 191.16926102 89.43348651 201.90600586 87.77270508 C203.64241837 87.50913963 203.64241837 87.50913963 205.41390991 87.24024963 C209.19822169 86.66497687 212.98165964 86.08415259 216.76513672 85.50341797 C219.40874636 85.10086847 222.05240817 84.69867955 224.69615173 84.29701233 C230.91876958 83.35092618 237.14081643 82.40114462 243.36261219 81.44966847 C254.52719913 79.74231455 265.69238668 78.03890991 276.85833734 76.34049708 C281.40331846 75.64896334 285.94769549 74.95354295 290.49195862 74.25730896 C292.85912474 73.89644867 295.2263063 73.53568969 297.59350586 73.17504883 C298.67660538 73.00830658 299.7597049 72.84156433 300.87562561 72.66976929 C301.86369202 72.51975967 302.85175842 72.36975006 303.86976624 72.2151947 C304.72896195 72.08375533 305.58815767 71.95231596 306.47338963 71.81689358 C308.66748047 71.53857422 308.66748047 71.53857422 311.66748047 71.53857422 C312.05033203 70.28753906 312.05033203 70.28753906 312.44091797 69.01123047 C320.84452396 45.21885555 337.32133345 24.46125503 354.66748047 6.53857422 C355.37388672 5.79220703 356.08029297 5.04583984 356.80810547 4.27685547 C393.12287081 -33.29268835 446.65872203 -52.7191648 498.16748047 -53.64892578 C542.7973634 -53.19557483 586.05261609 -39.60717347 621.66748047 -12.46142578 C622.60462891 -11.74857422 623.54177734 -11.03572266 624.50732422 -10.30126953 C628.96620916 -6.82132775 633.11501648 -3.21622054 636.99951172 0.89794922 C638.71514385 2.65283186 638.71514385 2.65283186 641.05419922 4.36669922 C643.99983079 6.81478764 646.34374308 9.51843727 648.66748047 12.53857422 C649.10318359 13.10382813 649.53888672 13.66908203 649.98779297 14.25146484 C653.9684069 19.60860844 656.4501624 25.25617303 658.66748047 31.53857422 C659.05162109 32.28880859 659.43576172 33.03904297 659.83154297 33.81201172 C664.85956017 50.21180615 652.42738013 70.4348833 645.66748047 84.53857422 C638.52198583 99.6522132 632.24871832 114.84940558 626.85498047 130.66357422 C626.58387451 131.44078827 626.31276855 132.21800232 626.03344727 133.01876831 C621.76637405 144.56600035 621.76637405 144.56600035 622.66748047 156.53857422 C622.97790283 157.63927246 623.2883252 158.7399707 623.6081543 159.87402344 C624.81856615 163.91770523 626.12786662 167.91567003 627.47998047 171.91357422 C627.72157898 172.63556 627.96317749 173.35754578 628.21209717 174.10140991 C632.75872528 187.62800988 638.21425691 200.58933558 644.25830078 213.52148438 C647.82181555 221.15106087 651.26966555 228.83393838 654.66748047 236.53857422 C655.11994141 237.55306641 655.57240234 238.56755859 656.03857422 239.61279297 C660.78933709 251.2547723 662.36467579 263.08116774 657.61181641 274.84521484 C654.46769591 281.74088197 649.78835078 287.0205407 644.66748047 292.53857422 C643.64267578 293.83601562 643.64267578 293.83601562 642.59716797 295.15966797 C640.82356365 297.34615589 639.05968287 299.09889863 636.91748047 300.91357422 C633.85832548 303.51613337 633.85832548 303.51613337 630.86279297 306.19091797 C604.43481739 330.2936854 569.50639987 345.00519943 534.66748047 351.53857422 C532.96205078 351.85955078 532.96205078 351.85955078 531.22216797 352.18701172 C479.49704996 360.95613492 424.72858099 347.57521791 381.91748047 317.66357422 C364.76317214 305.37621071 349.49853201 291.05982449 336.86816406 274.140625 C335.79363923 272.70690561 334.69497615 271.29135117 333.59326172 269.87841797 C311.66748047 241.10360972 311.66748047 241.10360972 311.66748047 229.53857422 C311.10057841 229.4677425 310.53367636 229.39691078 309.94959545 229.32393265 C295.64559619 227.52533679 281.39668076 225.47632875 267.15690041 223.22768402 C262.59602097 222.50898621 258.0334988 221.80098036 253.4710722 221.09218216 C245.03603659 219.7817038 236.60168708 218.46720059 228.17016602 217.13427734 C222.24512742 216.19802071 216.31809389 215.27546325 210.38953209 214.36179352 C208.15183206 214.01436179 205.91489755 213.6619586 203.67881203 213.30428314 C200.55555929 212.80528505 197.43003987 212.3238791 194.3034668 211.84619141 C193.4009166 211.69769745 192.49836639 211.54920349 191.56846619 211.39620972 C180.73122508 209.78431727 170.16569992 211.64366192 159.42895508 213.30444336 C158.27134674 213.48015366 157.1137384 213.65586395 155.92105103 213.8368988 C152.13673925 214.41217157 148.3533013 214.99299584 144.56982422 215.57373047 C141.92621457 215.97627997 139.28255277 216.37846889 136.6388092 216.78013611 C130.41619136 217.72622226 124.19414451 218.67600382 117.97234875 219.62747997 C106.80776181 221.33483389 95.64257426 223.03823853 84.47662359 224.73665136 C79.93164248 225.4281851 75.38726544 226.12360549 70.84300232 226.81983948 C68.4758362 227.18069977 66.10865464 227.54145875 63.74145508 227.90209961 C62.65835556 228.06884186 61.57525604 228.23558411 60.45933533 228.40737915 C59.47126892 228.55738876 58.48320251 228.70739838 57.4651947 228.86195374 C56.60599898 228.99339311 55.74680326 229.12483248 54.86157131 229.26025486 C52.66748047 229.53857422 52.66748047 229.53857422 49.66748047 229.53857422 C49.28462891 230.78960938 49.28462891 230.78960938 48.89404297 232.06591797 C40.49043698 255.85829288 24.01362749 276.61589341 6.66748047 294.53857422 C5.96107422 295.28494141 5.25466797 296.03130859 4.52685547 296.80029297 C-23.61039003 325.90976036 -62.93652951 344.15060776 -102.33251953 351.53857422 C-104.03794922 351.85955078 -104.03794922 351.85955078 -105.77783203 352.18701172 C-114.2539906 353.62400175 -122.75502488 354.18441784 -131.33251953 354.53857422 C-132.35474609 354.58111328 -133.37697266 354.62365234 -134.43017578 354.66748047 C-179.54651063 355.55910764 -224.49868512 340.85122147 -260.33251953 313.53857422 C-261.26966797 312.82572266 -262.20681641 312.11287109 -263.17236328 311.37841797 C-267.63124822 307.89847619 -271.78005554 304.29336898 -275.66455078 300.17919922 C-277.38018292 298.42431658 -277.38018292 298.42431658 -279.71923828 296.71044922 C-282.66486985 294.2623608 -285.00878214 291.55871117 -287.33251953 288.53857422 C-287.98607422 287.69069336 -287.98607422 287.69069336 -288.65283203 286.82568359 C-292.63344596 281.46853999 -295.11520146 275.82097541 -297.33251953 269.53857422 C-297.71666016 268.78833984 -298.10080078 268.03810547 -298.49658203 267.26513672 C-303.52459923 250.86534229 -291.09241919 230.64226513 -284.33251953 216.53857422 C-277.1870249 201.42493523 -270.91375738 186.22774286 -265.52001953 170.41357422 C-265.24891357 169.63636017 -264.97780762 168.85914612 -264.69848633 168.05838013 C-260.43141312 156.51114809 -260.43141312 156.51114809 -261.33251953 144.53857422 C-261.64294189 143.43787598 -261.95336426 142.33717773 -262.27319336 141.203125 C-263.48360674 137.15943813 -264.79261128 133.16138821 -266.14501953 129.16357422 C-266.38761505 128.43926208 -266.63021057 127.71494995 -266.88015747 126.96868896 C-271.78755341 112.38377795 -277.8341716 98.48714076 -284.33251953 84.53857422 C-286.01519949 80.89498753 -287.69091319 77.24876844 -289.34643555 73.59277344 C-290.38577572 71.29989358 -291.43625272 69.0120139 -292.50024414 66.73046875 C-295.54461849 60.01967865 -297.29340702 53.81602584 -298.33251953 46.53857422 C-298.66490241 44.97587176 -298.99809723 43.41334151 -299.33251953 41.85107422 C-300.12378514 32.46039364 -295.31121771 22.55163917 -289.52709961 15.38769531 C-287.52021584 13.05072465 -285.42772892 10.79628335 -283.33251953 8.53857422 C-282.64931641 7.67361328 -281.96611328 6.80865234 -281.26220703 5.91748047 C-279.48860271 3.73099255 -277.72472193 1.97824981 -275.58251953 0.16357422 C-272.52336455 -2.43898494 -272.52336455 -2.43898494 -269.52783203 -5.11376953 C-243.09985645 -29.21653696 -208.17143894 -43.92805099 -173.33251953 -50.46142578 C-171.62708984 -50.78240234 -171.62708984 -50.78240234 -169.88720703 -51.10986328 C-109.05490578 -61.42295612 -45.36637661 -41.2337315 0 0 Z M-171.33251953 6.53857422 C-172.00524902 6.70486328 -172.67797852 6.87115234 -173.37109375 7.04248047 C-197.55993912 13.07711965 -223.14530996 25.02906129 -238.33251953 45.53857422 C-242.49590701 55.53070417 -240.88431635 65.88413945 -237.01879883 75.65869141 C-232.55292538 86.16633135 -225.57836069 94.64055374 -218.18798828 103.19482422 C-207.502063 115.61133747 -197.44505688 128.88467968 -188.58251953 142.66357422 C-187.92767578 143.67677734 -187.27283203 144.68998047 -186.59814453 145.73388672 C-185.08029396 149.09751854 -185.03963862 150.11321244 -186.33251953 153.53857422 C-187.74691408 156.09591386 -189.19009121 158.5261348 -190.77001953 160.97607422 C-191.21885498 161.67982178 -191.66769043 162.38356934 -192.13012695 163.10864258 C-198.9600469 173.72275572 -206.21992621 183.59665501 -214.57250977 193.06518555 C-219.49840327 198.66441839 -224.02634436 204.44238113 -228.33251953 210.53857422 C-228.96931641 211.42802734 -229.60611328 212.31748047 -230.26220703 213.23388672 C-238.17847298 224.88744561 -241.98287425 236.64316032 -240.03173828 250.70654297 C-237.18134716 261.25951772 -225.17269322 270.16261954 -216.33251953 275.53857422 C-215.33091797 276.17150391 -214.32931641 276.80443359 -213.29736328 277.45654297 C-190.34019415 291.33824641 -164.81831093 297.99043449 -138.08251953 297.85107422 C-137.35540771 297.8492514 -136.6282959 297.84742859 -135.87915039 297.84555054 C-125.07687376 297.79997194 -114.82859218 297.30420606 -104.33251953 294.53857422 C-103.64915527 294.36696777 -102.96579102 294.19536133 -102.26171875 294.01855469 C-79.5784838 288.25895861 -59.17386892 277.62534834 -41.33251953 262.53857422 C-40.46626953 261.81412109 -39.60001953 261.08966797 -38.70751953 260.34326172 C-33.77996187 256.09823738 -29.43268735 251.5822953 -25.33251953 246.53857422 C-24.57197266 245.61560547 -23.81142578 244.69263672 -23.02783203 243.74169922 C1.99034391 212.73555022 13.0300094 173.76238161 9.19873047 134.18701172 C5.72141111 104.02147505 -6.60598423 76.55286541 -26.33251953 53.53857422 C-26.91517578 52.83474609 -27.49783203 52.13091797 -28.09814453 51.40576172 C-45.85552983 30.36885932 -71.77252087 15.91957798 -97.89501953 8.28857422 C-98.73315186 8.04212158 -99.57128418 7.79566895 -100.43481445 7.54174805 C-112.73670056 4.10283061 -124.87584954 3.15984072 -137.58251953 3.22607422 C-138.30963135 3.22789703 -139.03674316 3.22971985 -139.78588867 3.2315979 C-150.58969899 3.27718297 -160.83415639 3.77760491 -171.33251953 6.53857422 Z M465.66748047 6.53857422 C464.98411621 6.71018066 464.30075195 6.88178711 463.59667969 7.05859375 C440.91344474 12.81818983 420.50882986 23.45180009 402.66748047 38.53857422 C401.80123047 39.26302734 400.93498047 39.98748047 400.04248047 40.73388672 C395.1149228 44.97891106 390.76764829 49.49485314 386.66748047 54.53857422 C385.90693359 55.46154297 385.14638672 56.38451172 384.36279297 57.33544922 C359.37822741 88.29126185 348.29769503 127.41081267 352.13232422 166.90966797 C355.64013642 197.07238439 367.93718573 224.51989702 387.66748047 247.53857422 C388.54146484 248.59431641 388.54146484 248.59431641 389.43310547 249.67138672 C407.19049077 270.70828912 433.1074818 285.15757046 459.22998047 292.78857422 C460.06811279 293.03502686 460.90624512 293.28147949 461.76977539 293.53540039 C474.0716615 296.97431782 486.21081048 297.91730772 498.91748047 297.85107422 C499.64459229 297.8492514 500.3717041 297.84742859 501.12084961 297.84555054 C511.92465993 297.79996547 522.16911733 297.29954353 532.66748047 294.53857422 C533.34020996 294.37228516 534.01293945 294.20599609 534.70605469 294.03466797 C558.89490006 288.00002879 584.4802709 276.04808714 599.66748047 255.53857422 C603.83086795 245.54644426 602.21927729 235.19300899 598.35375977 225.41845703 C593.57919521 214.18450566 585.90058521 205.18666558 577.98730469 196.06298828 C567.6964606 184.17693011 558.29461954 171.45334737 549.79248047 158.22607422 C549.15568359 157.23994141 548.51888672 156.25380859 547.86279297 155.23779297 C546.40392032 151.94341062 546.41613467 150.89559828 547.66748047 147.53857422 C549.08187502 144.98123458 550.52505215 142.55101364 552.10498047 140.10107422 C552.55381592 139.39732666 553.00265137 138.6935791 553.46508789 137.96850586 C560.29500783 127.35439272 567.55488714 117.48049343 575.9074707 108.01196289 C580.83336421 102.41273005 585.36130529 96.63476731 589.66748047 90.53857422 C590.30427734 89.64912109 590.94107422 88.75966797 591.59716797 87.84326172 C599.51343392 76.18970283 603.31783519 64.43398812 601.36669922 50.37060547 C598.5163081 39.81763072 586.50765416 30.9145289 577.66748047 25.53857422 C576.66587891 24.90564453 575.66427734 24.27271484 574.63232422 23.62060547 C551.67515508 9.73890203 526.15327187 3.08671394 499.41748047 3.22607422 C498.69036865 3.22789703 497.96325684 3.22971985 497.21411133 3.2315979 C486.4118347 3.2771765 476.16355312 3.77294238 465.66748047 6.53857422 Z M90.66748047 116.53857422 C90.66748047 138.97857422 90.66748047 161.41857422 90.66748047 184.53857422 C110.53130213 182.06505772 110.53130213 182.06505772 130.33544922 179.24169922 C133.06887465 178.83473325 135.8027938 178.43111199 138.53662109 178.02685547 C142.72181145 177.4067536 146.9062009 176.78208414 151.08862305 176.14355469 C154.55101822 175.61539184 158.01528445 175.10149219 161.48113441 174.59651947 C163.39055353 174.31452194 165.29777983 174.01779741 167.20487976 173.72052002 C181.28633476 171.689847 194.73616827 174.00091568 208.67529297 176.04248047 C210.37582248 176.28810726 212.07641579 176.53329268 213.77706909 176.77806091 C218.21175109 177.4172357 222.64573526 178.06111523 227.07952881 178.7064209 C234.20933564 179.74359454 241.33999621 180.77484533 248.471035 181.80351067 C250.95471108 182.16269621 253.4379574 182.52474735 255.9211731 182.88710022 C257.43571614 183.10638832 258.95027231 183.32558583 260.46484375 183.54467773 C261.1536412 183.64596481 261.84243866 183.74725189 262.55210876 183.85160828 C265.29218925 184.24585913 267.89404098 184.53857422 270.66748047 184.53857422 C270.66748047 162.09857422 270.66748047 139.65857422 270.66748047 116.53857422 C250.8036588 119.01209072 250.8036588 119.01209072 230.99951172 121.83544922 C228.26608629 122.24241519 225.53216714 122.64603644 222.79833984 123.05029297 C218.61314948 123.67039483 214.42876004 124.29506429 210.24633789 124.93359375 C206.78394272 125.4617566 203.31967649 125.97565624 199.85382652 126.48062897 C197.9444074 126.76262649 196.0371811 127.05935102 194.13008118 127.35662842 C180.04862618 129.38730144 166.59879267 127.07623275 152.65966797 125.03466797 C150.95913846 124.78904118 149.25854515 124.54385576 147.55789185 124.29908752 C143.12320985 123.65991273 138.68922568 123.01603321 134.25543213 122.37072754 C127.12562529 121.3335539 119.99496473 120.3023031 112.86392593 119.27363777 C110.38024986 118.91445222 107.89700353 118.55240109 105.41378784 118.19004822 C103.89924479 117.97076012 102.38468863 117.75156261 100.87011719 117.5324707 C100.18131973 117.43118362 99.49252228 117.32989655 98.78285217 117.22554016 C96.04277169 116.83128931 93.44091996 116.53857422 90.66748047 116.53857422 Z " fill="#999999" transform="translate(779.33251953125,389.46142578125)"/>
</svg>
