<svg xmlns="http://www.w3.org/2000/svg" viewBox="265 -150 1400 1400">
    <circle cx="965" cy="550" r="700" />
    <path d="M779.333 389.461c20.699 19.1 39.215 43.183 49.667 69.539v2l1.718.215c14.304 1.798 28.553 3.847 42.793 6.096 4.56.719 9.123 1.427 13.685 2.135 8.435 1.31 16.87 2.625 25.301 3.958q8.888 1.404 17.78 2.773 3.358.521 6.712 1.057c3.123.5 6.248.98 9.375 1.458l2.735.45c10.837 1.612 21.403-.247 32.14-1.908l3.507-.532q5.677-.865 11.352-1.737l7.93-1.207q9.334-1.419 18.667-2.847 16.747-2.56 33.496-5.11 6.818-1.037 13.633-2.082l7.102-1.083 3.282-.505 2.994-.454 2.604-.399C1088 461 1088 461 1091 461l.773-2.527c8.404-23.793 24.88-44.55 42.227-62.473l2.14-2.262c36.315-37.57 89.851-56.996 141.36-57.925 44.63.453 87.885 14.041 123.5 41.187l2.84 2.16c4.459 3.48 8.608 7.085 12.492 11.2 1.716 1.754 1.716 1.754 4.055 3.468 2.945 2.448 5.29 5.152 7.613 8.172l1.32 1.713c3.98 5.357 6.463 11.005 8.68 17.287l1.164 2.273c5.028 16.4-7.404 36.623-14.164 50.727-7.145 15.114-13.419 30.31-18.812 46.125l-.822 2.355c-4.267 11.547-4.267 11.547-3.366 23.52l.94 3.335c1.211 4.044 2.52 8.042 3.873 12.04l.732 2.188c4.546 13.526 10.002 26.488 16.046 39.42 3.563 7.63 7.011 15.312 10.409 23.017l1.371 3.074c4.75 11.642 6.326 23.469 1.573 35.233-3.144 6.895-7.823 12.175-12.944 17.693l-2.07 2.621c-1.774 2.187-3.538 3.94-5.68 5.754-3.06 2.603-3.06 2.603-6.055 5.277-26.428 24.103-61.356 38.815-96.195 45.348l-3.445.648c-51.725 8.77-106.494-4.611-149.305-34.523-17.154-12.287-32.419-26.604-45.05-43.523a281 281 0 0 0-3.274-4.262C1091 630.565 1091 630.565 1091 619l-1.718-.215c-14.304-1.798-28.553-3.847-42.793-6.096-4.56-.719-9.123-1.427-13.685-2.135-8.435-1.31-16.87-2.625-25.301-3.958a4722 4722 0 0 0-17.78-2.773q-3.358-.521-6.712-1.057c-3.123-.5-6.248-.98-9.375-1.458l-2.735-.45c-10.837-1.612-21.403.247-32.14 1.908l-3.507.532q-5.677.865-11.352 1.737l-7.93 1.207q-9.334 1.419-18.667 2.847-16.747 2.56-33.496 5.11-6.818 1.037-13.633 2.082l-7.102 1.083-3.282.505-2.994.454-2.604.399C832 619 832 619 829 619l-.773 2.527C819.823 645.32 803.347 666.077 786 684l-2.14 2.262C755.721 715.372 716.395 733.612 677 741l-3.445.648c-8.476 1.437-16.978 1.998-25.555 2.352l-3.098.129C599.786 745.02 554.834 730.313 519 703l-2.84-2.16c-4.459-3.48-8.608-7.085-12.492-11.2-1.716-1.754-1.716-1.754-4.055-3.468-2.945-2.448-5.29-5.152-7.613-8.172l-1.32-1.713c-3.98-5.357-6.463-11.005-8.68-17.287l-1.164-2.273c-5.028-16.4 7.404-36.623 14.164-50.727 7.145-15.114 13.419-30.31 18.813-46.125l.821-2.355c4.267-11.547 4.267-11.547 3.366-23.52l-.94-3.335c-1.211-4.044-2.52-8.042-3.872-12.04l-.736-2.195C507.545 501.845 501.498 487.95 495 474a1618 1618 0 0 1-5.014-10.946q-1.559-3.44-3.154-6.862c-3.044-6.71-4.793-12.915-5.832-20.192q-.498-2.344-1-4.687c-.791-9.391 4.021-19.3 9.805-26.464 2.007-2.337 4.1-4.591 6.195-6.849l2.07-2.621c1.774-2.187 3.538-3.94 5.68-5.754 3.06-2.603 3.06-2.603 6.055-5.277C536.233 360.245 571.16 345.533 606 339l3.445-.648c60.833-10.314 124.521 9.876 169.888 51.11M608 396l-2.039.504C581.773 402.539 556.187 414.49 541 435c-4.163 9.992-2.552 20.346 1.314 30.12 4.466 10.508 11.44 18.982 18.83 27.536 10.686 12.417 20.743 25.69 29.606 39.469l1.984 3.07c1.518 3.364 1.559 4.38.266 7.805a127 127 0 0 1-4.437 7.438c-.45.703-.898 1.407-1.36 2.132-6.83 10.614-14.09 20.488-22.443 29.957-4.926 5.599-9.454 11.377-13.76 17.473l-1.93 2.695c-7.916 11.654-11.72 23.41-9.77 37.473 2.851 10.553 14.86 19.456 23.7 24.832l3.035 1.918c22.957 13.882 48.48 20.534 75.215 20.395l2.203-.006c10.803-.046 21.05-.541 31.547-3.307l2.07-.52c22.684-5.76 43.089-16.393 60.93-31.48l2.625-2.195C745.553 645.56 749.9 641.044 754 636l2.305-2.797c25.018-31.006 36.058-69.98 32.226-109.555C785.054 493.483 772.727 466.014 753 443l-1.766-2.133c-17.757-21.037-43.674-35.486-69.796-43.117l-2.54-.747c-12.302-3.439-24.441-4.382-37.148-4.315l-2.203.005c-10.804.046-21.049.546-31.547 3.307m637 0-2.07.52c-22.684 5.76-43.089 16.393-60.93 31.48l-2.625 2.195c-4.928 4.245-9.275 8.761-13.375 13.805l-2.305 2.797c-24.984 30.956-36.065 70.075-32.23 109.574 3.508 30.163 15.805 57.61 35.535 80.629l1.766 2.133c17.757 21.037 43.674 35.486 69.797 43.117l2.54.747c12.301 3.439 24.44 4.382 37.147 4.316l2.203-.006c10.804-.046 21.049-.546 31.547-3.307l2.039-.504c24.188-6.035 49.774-17.986 64.961-38.496 4.163-9.992 2.552-20.346-1.314-30.12-4.774-11.234-12.453-20.232-20.366-29.356-10.291-11.886-19.693-24.61-28.195-37.836l-1.93-2.989c-1.459-3.294-1.446-4.342-.195-7.699a127 127 0 0 1 4.438-7.437l1.36-2.133c6.83-10.614 14.09-20.488 22.442-29.957 4.926-5.599 9.454-11.377 13.76-17.473l1.93-2.695c7.916-11.654 11.72-23.41 9.77-37.473-2.851-10.553-14.86-19.456-23.7-24.832l-3.035-1.918c-22.957-13.882-48.48-20.534-75.215-20.394l-2.203.005c-10.803.046-21.05.541-31.547 3.307M870 506v68c19.864-2.474 19.864-2.474 39.668-5.297q4.1-.609 8.201-1.215c4.185-.62 8.37-1.244 12.552-1.883a1570 1570 0 0 1 10.393-1.547c1.91-.282 3.816-.579 5.723-.876 14.082-2.03 27.532.28 41.47 2.322l5.103.735q6.651.96 13.302 1.929 10.695 1.554 21.392 3.097 3.724.54 7.45 1.084l4.543.657 2.088.307c2.74.394 5.342.687 8.115.687v-68c-19.864 2.474-19.864 2.474-39.668 5.297q-4.1.609-8.201 1.215c-4.185.62-8.37 1.244-12.552 1.883q-5.194.79-10.393 1.547c-1.91.282-3.816.579-5.723.876-14.082 2.03-27.532-.28-41.47-2.322l-5.103-.735q-6.651-.96-13.302-1.929-10.695-1.554-21.392-3.097-3.724-.54-7.45-1.084l-4.543-.657-2.088-.307c-2.74-.394-5.342-.687-8.115-.687" fill="#999"/>


</svg>
